<?xml version="1.0" encoding="UTF-8"?>
<svg id="Layer_2" data-name="Layer 2" xmlns="http://www.w3.org/2000/svg" viewBox="0 0 1024 1024">
  <defs>
    <style>
      .cls-1 {
        fill: #fff;
      }
    </style>
  </defs>
  <g id="Layer_1-2" data-name="Layer 1">
    <rect width="1024" height="1024"/>
    <g>
      <path class="cls-1" d="M625.78,314.17c-71.05,9.99-33.19,118.35,26.14,83.62,44.14-25.84,16.33-89.59-26.14-83.62ZM635.3,375.94c-22.91,4.09-29.47-28.82-9.64-34.57,24.45-7.08,32.47,30.49,9.64,34.57Z"/>
      <path class="cls-1" d="M497.59,314.16c-15.75,2.18-34.81,17.46-37.36,33.74-8.4,53.56,57.24,73.16,81.23,32.16,18.55-31.7-8.36-70.8-43.87-65.89ZM519.72,366.51c-17.34,29.89-52.13-18.5-19.48-25.12,16.02-3.25,28.08,10.3,19.48,25.12Z"/>
      <path class="cls-1" d="M850.08,486.83c3.12-1.2,59.83-1.72,54.53-9.51-21.73-9.57-37.94-28.9-54.53-45.07-3.37-8.06,17.26-1.35,19.08-5.41-40.18-65.9-82.13-131.03-130.88-190.97l29.94-4.1c-30.05-53.59-79.17-93.88-136.34-115.87l38.15-13.61c-66.95-64.15-169.45-73.55-256.36-50.48l19.07,27.24c-44.18,5.72-87.63,34.52-120.02,64.09-3.32,3.02-30.46,28.54-27.23,31.4h40.9l-89.97,94.13c-1.15,6.34,2.86,3.59,6.81,4,6.7.68,14.76-.93,20.43,4.11l-65.45,73.71,27.24,2.7-73.6,68.2,35.45,2.7c-26.62,27.96-60.19,49.74-98.19,58.68l38.15,21.73c-45.22,17.88-87.18,43.72-127.26,71.27v184.11l55.01-80.73c4.73,12.79,3.17,26.35,4.05,39.56.32,4.05-2.02,7.9,4.11,6.75,49.23-46.67,94.4-98.13,130.73-155.67,9.62-15.28,16.06-34.36,28.8-46.16.72,31.92,10.81,63.1,21.88,92.73l29.94-62.69c2.34,44.81,8.32,88.52,35.55,125.43l5.41-1.66,8.89-31.71,18.35-40.23c6.86,73.29,30.82,146.37,76.35,204.54,7.23-15.6,14.82-36.96,23.97-51.05,1.71-2.65-.32-4.88,6.08-3.53,7.95,45.58,27.13,91.9,55.93,128.18l19.12-29.89,36.75-79.16c7.54,39.24,22.67,83.16,46.89,115.39,3.95,5.25,11.33,19.23,18.3,15.18,1.76-.99,18.45-30.51,20.84-35.09,15.39-29.94,26.67-64.82,31.29-98.19l13,23.76c4.15,12.26,6.7,24.74,8.88,37.53.68,3.84-2.54,8,4.01,6.86,33.52-40.7,66.84-84.78,80.51-136.34,4.32-4.53,10.61,34.67,10.97,39.45,1.77,24.06-2.96,46-5.51,69.6,7.85-3.02,17.73-7.02,25.99-8.06,4.16-.57,4.68-.57,3.69,3.69-1.56,6.92-8.78,21.57-12.32,28.59-18.92,37.63-46.94,68.66-77.4,97.2,12.12,3.74,25.68-1.45,37.53,3.43,3.12,1.25,4.32-.47,2.97,4.27l-40.65,82.14h294.09v-387.25c-64.78-38.85-130.73-87.07-173.92-149.92ZM693.53,598.2c-3.31,6.52-34.71,9.82-43.68,10.85-42.76,4.87-93.46,4.11-136.33,0-15.85-1.51-69.6-8.13-81.28-14.18-1.61-.84-3.52-2.67-5.42-4.96-5.88-7.08-3.13-17.86,5.42-21.28,15.02,1.05,29.88,3.67,44.74,6.36,14.86,2.69,29.72,5.45,44.73,6.78,36.87,3.27,80.06,2.51,117.22,0,13.55-.92,71.75-17.37,54.6,16.43ZM524.86,466.88c38.82-4.39,55.17,56.89,3.87,43.99-32-8.05-38.58-40.06-3.87-43.99ZM620.32,464.15c28.68-3.38,35.24,27.73,8.03,43.71-46.95,27.55-52.19-38.5-8.03-43.71ZM719.91,405.77c-2.69,9.1-21.34,51.35-31.74,49.48-22.24-18.57-53.97-28.17-82.53-32.2-54.54-7.68-117.06-1.49-163.82,29.25-72.57-33.83-63.42-178.33,25.84-181.5,58.16,4.84,121.62-.57,179.16,4.7,69.97,6.4,91.14,69.17,73.09,130.27Z"/>
    </g>
  </g>
</svg>