<?xml version="1.0" encoding="UTF-8"?>
<svg id="Layer_2" data-name="Layer 2" xmlns="http://www.w3.org/2000/svg" viewBox="0 0 1023.84 1023.78">
  <defs>
    <style>
      .cls-1 {
        fill: #fff;
      }
    </style>
  </defs>
  <g id="Layer_1-2" data-name="Layer 1">
    <rect width="1023.78" height="1023.78"/>
    <g>
      <path class="cls-1" d="M627.17,330.85c-71.03,9.99-33.18,118.32,26.14,83.6,44.13-25.83,16.32-89.57-26.14-83.6ZM636.7,392.61c-22.9,4.09-29.46-28.82-9.64-34.56,24.44-7.08,32.47,30.48,9.64,34.56Z"/>
      <path class="cls-1" d="M499.02,330.84c-15.75,2.18-34.8,17.46-37.36,33.73-8.4,53.55,57.23,73.14,81.21,32.15,18.54-31.7-8.36-70.79-43.86-65.88ZM521.14,383.17c-17.34,29.89-52.11-18.5-19.48-25.11,16.02-3.25,28.07,10.3,19.48,25.11Z"/>
      <path class="cls-1" d="M1023.84,867.8v-197.06c-64.77-38.84-129.23-104.44-172.41-167.27,3.12-1.2,59.82-1.72,54.52-9.51-21.73-9.57-37.93-28.89-54.52-45.06-3.37-8.06,17.26-1.35,19.08-5.41-40.17-65.89-82.11-131-130.85-190.93l29.93-4.1c-30.04-53.58-79.15-93.86-136.31-115.84l38.14-13.61c-66.94-64.14-169.41-73.53-256.3-50.47l19.07,27.23c-44.17,5.72-87.61,34.51-119.99,64.08-3.32,3.02-30.45,28.53-27.22,31.39h40.89l-89.95,94.11c-1.15,6.34,2.86,3.59,6.81,4,6.7.68,14.76-.93,20.43,4.11l-65.44,73.69,27.23,2.7-73.58,68.19,35.44,2.7c-26.61,27.95-60.18,49.73-98.17,58.67l38.14,21.73c-45.21,17.88-87.16,43.71-127.23,71.25v184.07l55-80.71c4.73,12.79,3.17,26.34,4.05,39.55.32,4.05-2.02,7.9,4.11,6.75,49.22-46.66,94.38-98.11,130.7-155.64,9.62-15.28,16.06-34.35,28.79-46.15.72,31.91,10.81,63.09,21.88,92.71l29.93-62.68c2.34,44.8,8.32,88.5,35.54,125.4l5.41-1.66,8.89-31.7,18.35-40.22c6.86,73.27,30.81,146.34,76.33,204.5,7.23-15.6,14.82-36.95,23.96-51.04,1.71-2.65-.32-4.88,6.08-3.53,7.95,45.57,27.12,91.88,55.92,128.15l19.12-29.88,36.74-79.14c7.54,39.23,22.67,83.14,46.88,115.37,3.95,5.25,11.33,19.23,18.3,15.18,1.76-.99,18.45-30.5,20.84-35.08,15.39-29.93,26.66-64.81,31.28-98.17l13,23.75c4.15,12.26,6.7,24.73,8.88,37.52.68,3.84-2.54,8,4.01,6.86,33.51-40.69,66.83-84.76,80.49-136.31,4.32-4.53,19.12,27.84,22.13,31.56,9.98,12.33,20.91-88.77,51.63-94.13,2.86-.5,5.78.5,7.89,2.5l47.08,85.09c1.57,1.49,4.12,1.08,5.15-.83l16.17-30.14c2.24-4.17,8.19-4.27,10.56-.17l77.24,153.62ZM694.91,614.82c-3.31,6.52-34.7,9.82-43.67,10.85-42.75,4.87-93.44,4.11-136.3,0-15.85-1.51-69.58-8.13-81.26-14.18-1.61-.84-3.52-2.67-5.42-4.96-5.88-7.08-3.13-17.86,5.42-21.28,15.02,1.05,29.87,3.67,44.73,6.36,14.86,2.69,29.71,5.45,44.72,6.78,36.86,3.27,80.04,2.51,117.19,0,13.55-.92,71.73-17.37,54.59,16.43ZM526.28,483.53c38.81-4.39,55.16,56.88,3.87,43.98-31.99-8.05-38.57-40.05-3.87-43.98ZM621.72,480.8c28.67-3.38,35.23,27.72,8.03,43.7-46.94,27.54-52.18-38.49-8.03-43.7ZM721.29,422.43c-1.74,5.9-10.19,25.72-18.75,38.42-4.86,7.22-14.71,9.19-21.95,4.36-21.33-14.24-48.64-21.99-73.55-25.51-51.61-7.27-110.38-2.11-156.16,24.52-5.19,3.02-11.67,2.96-16.69-.34-62.54-41.14-50.44-173.37,34.9-176.4,58.15,4.84,121.59-.57,179.12,4.7,69.95,6.4,91.12,69.16,73.07,130.24Z"/>
    </g>
  </g>
</svg>