<?xml version="1.0" encoding="UTF-8"?>
<svg id="Layer_2" data-name="Layer 2" xmlns="http://www.w3.org/2000/svg" viewBox="0 0 179.75 179.75">
  <defs>
    <style>
      .cls-1 {
        fill: #fff;
      }
    </style>
  </defs>
  <g id="Layer_1-2" data-name="Layer 1">
    <rect width="179.75" height="179.75"/>
    <g>
      <path class="cls-1" d="M109.84,55.15c-12.47,1.75-5.83,20.77,4.59,14.68,7.75-4.54,2.87-15.73-4.59-14.68ZM111.52,65.99c-4.02.72-5.17-5.06-1.69-6.07,4.29-1.24,5.7,5.35,1.69,6.07Z"/>
      <path class="cls-1" d="M87.34,55.15c-2.77.38-6.11,3.07-6.56,5.92-1.48,9.4,10.05,12.84,14.26,5.64,3.26-5.56-1.47-12.43-7.7-11.57ZM91.23,64.33c-3.04,5.25-9.15-3.25-3.42-4.41,2.81-.57,4.93,1.81,3.42,4.41Z"/>
      <path class="cls-1" d="M179.75,146.37v-34.6c-11.37-6.82-22.95-15.28-30.53-26.32.55-.21,10.5-.3,9.57-1.67-3.81-1.68-6.66-5.07-9.57-7.91-.59-1.41,3.03-.24,3.35-.95-7.05-11.57-14.42-23-22.97-33.52l5.26-.72c-5.27-9.41-13.9-16.48-23.93-20.34l6.7-2.39c-11.75-11.26-29.74-12.91-45-8.86l3.35,4.78c-7.76,1-15.38,6.06-21.07,11.25-.58.53-5.35,5.01-4.78,5.51h7.18l-15.79,16.52c-.2,1.11.5.63,1.2.7,1.18.12,2.59-.16,3.59.72l-11.49,12.94,4.78.47-12.92,11.97,6.22.47c-4.67,4.91-10.57,8.73-17.24,10.3l6.7,3.81c-7.94,3.14-15.3,7.67-22.34,12.51v32.32l9.66-14.17c.83,2.25.56,4.63.71,6.94.06.71-.35,1.39.72,1.18,8.64-8.19,16.57-17.23,22.95-27.33,1.69-2.68,2.82-6.03,5.06-8.1.13,5.6,1.9,11.08,3.84,16.28l5.26-11c.41,7.87,1.46,15.54,6.24,22.02l.95-.29,1.56-5.57,3.22-7.06c1.2,12.86,5.41,25.69,13.4,35.9,1.27-2.74,2.6-6.49,4.21-8.96.3-.47-.06-.86,1.07-.62,1.4,8,4.76,16.13,9.82,22.5l3.36-5.25,6.45-13.9c1.32,6.89,3.98,14.6,8.23,20.25.69.92,1.99,3.38,3.21,2.66.31-.17,3.24-5.36,3.66-6.16,2.7-5.26,4.68-11.38,5.49-17.24l2.28,4.17c.73,2.15,1.18,4.34,1.56,6.59.12.67-.45,1.4.7,1.2,5.88-7.14,11.73-14.88,14.13-23.93.76-.8,1.86,6.09,1.93,6.92.31,4.22,5.86-11.82,11.58-11.18M121.74,105c-.58,1.14-6.09,1.72-7.67,1.9-7.51.85-16.41.72-23.93,0-2.78-.27-12.22-1.43-14.27-2.49-.28-.15-.62-.47-.95-.87-1.03-1.24-.55-3.14.95-3.74,2.64.18,5.24.64,7.85,1.12,2.61.47,5.22.96,7.85,1.19,6.47.57,14.05.44,20.58,0,2.38-.16,12.59-3.05,9.58,2.88ZM92.13,81.95c6.81-.77,9.68,9.99.68,7.72-5.62-1.41-6.77-7.03-.68-7.72ZM108.89,81.47c5.03-.59,6.19,4.87,1.41,7.67-8.24,4.84-9.16-6.76-1.41-7.67ZM126.37,71.23c-.31,1.04-1.79,4.51-3.29,6.75-.85,1.27-2.58,1.61-3.85.77-3.74-2.5-8.54-3.86-12.91-4.48-9.06-1.28-19.38-.37-27.42,4.31-.91.53-2.05.52-2.93-.06-10.98-7.22-8.86-30.44,6.13-30.97,10.21.85,21.35-.1,31.45.83,12.28,1.12,16,12.14,12.83,22.87Z"/>
    </g>
  </g>
</svg>