<?xml version="1.0" encoding="UTF-8"?>
<svg id="Layer_2" data-name="Layer 2" xmlns="http://www.w3.org/2000/svg" viewBox="0 0 636.75 314.06">
  <defs>
    <style>
      .cls-1 {
        fill: #fff;
      }
    </style>
  </defs>
  <g id="Layer_1-2" data-name="Layer 1">
    <g>
      <path class="cls-1" d="M111.4,208.41h-51.38v105.65H0V0h111.4c24.66,0,35.35,11.1,35.35,35.76v137.3c0,24.67-10.69,35.35-35.35,35.35ZM86.33,53.85h-26.31v101.12h26.31V53.85Z"/>
      <path class="cls-1" d="M274.19,314.06h-78.93c-24.66,0-34.94-11.1-34.94-35.76V35.76c0-24.66,10.28-35.76,34.94-35.76h78.93c24.66,0,35.35,11.1,35.35,35.76v242.53c0,24.67-10.69,35.76-35.35,35.76ZM249.11,53.85h-28.78v206.36h28.78V53.85Z"/>
      <path class="cls-1" d="M437.79,314.06h-78.93c-24.66,0-34.94-11.1-34.94-35.76V35.76c0-24.66,10.69-35.76,34.94-35.76h78.93c24.66,0,35.35,11.1,35.35,35.76v57.55h-60.43v-39.46h-28.78v206.36h28.78v-71.53h-20.14v-55.08h80.57v144.7c0,24.67-10.69,35.76-35.35,35.76Z"/>
      <path class="cls-1" d="M601.4,314.06h-78.93c-24.66,0-34.94-11.1-34.94-35.76V35.76c0-24.66,10.28-35.76,34.94-35.76h78.93c24.66,0,35.35,11.1,35.35,35.76v242.53c0,24.67-10.69,35.76-35.35,35.76ZM576.33,53.85h-28.78v206.36h28.78V53.85Z"/>
    </g>
  </g>
</svg>