<?xml version="1.0" encoding="UTF-8"?>
<svg id="Layer_2" data-name="Layer 2" xmlns="http://www.w3.org/2000/svg" viewBox="0 0 349.58 172.42">
  <g id="text">
    <g>
      <path d="M61.16,114.42h-28.21v58H0V0h61.16c13.54,0,19.41,6.09,19.41,19.63v75.38c0,13.54-5.87,19.41-19.41,19.41ZM47.39,29.56h-14.44v55.52h14.44V29.56Z"/>
      <path d="M150.53,172.42h-43.33c-13.54,0-19.18-6.09-19.18-19.63V19.63c0-13.54,5.64-19.63,19.18-19.63h43.33c13.54,0,19.41,6.09,19.41,19.63v133.15c0,13.54-5.87,19.63-19.41,19.63ZM136.76,29.56h-15.8v113.29h15.8V29.56Z"/>
      <path d="M240.35,172.42h-43.33c-13.54,0-19.18-6.09-19.18-19.63V19.63c0-13.54,5.87-19.63,19.18-19.63h43.33c13.54,0,19.41,6.09,19.41,19.63v31.6h-33.17v-21.67h-15.8v113.29h15.8v-39.27h-11.06v-30.24h44.23v79.44c0,13.54-5.87,19.63-19.41,19.63Z"/>
      <path d="M330.17,172.42h-43.33c-13.54,0-19.18-6.09-19.18-19.63V19.63c0-13.54,5.64-19.63,19.18-19.63h43.33c13.54,0,19.41,6.09,19.41,19.63v133.15c0,13.54-5.87,19.63-19.41,19.63ZM316.4,29.56h-15.8v113.29h15.8V29.56Z"/>
    </g>
  </g>
</svg>